<?xml version="1.0" encoding="UTF-8" standalone="no"?>
<svg
   width="71"
   height="8"
   viewBox="0 0 71 8"
   version="1.1"
   xmlns="http://www.w3.org/2000/svg"
   xmlns:svg="http://www.w3.org/2000/svg">
   <path
      style="fill:none;stroke:#ffffff;stroke-width:1;stroke-linecap:butt;stroke-linejoin:miter;stroke-opacity:1"
      d="M 4,7.5 A 3.5,3.5 0 1 1 7.5,4 M 4,4 7.5,7.5 M 9.5,0 v 4 a 3.5,3.5 0 0 0 7,0 V 0 m 2,8 V 4 a 3.5,3.5 0 0 1 7,0 V 8 M 20,5.5 h 4 M 27.5,8 V 1.25 l 7,5.5 V 0 M 36,0.5 h 8 m -4,1 V 8 m 9,-7.5 a 3.5,3.5 0 0 1 0,7 3.5,3.5 0 0 1 0,-7 z M 54.5,0 V 8 M 56,4 h 4 m 1.5,-4 v 8 m 2,0 V 1.25 l 3.5,3.5 3.5,-3.5 V 8"
      id="logoPath" />
</svg>
